<?xml version="1.0" standalone="no"?><!DOCTYPE svg PUBLIC "-//W3C//DTD SVG 1.1//EN" "http://www.w3.org/Graphics/SVG/1.1/DTD/svg11.dtd"><svg t="1550115100409" class="icon" style="" viewBox="0 0 1129 1024" version="1.1" xmlns="http://www.w3.org/2000/svg" p-id="1191" xmlns:xlink="http://www.w3.org/1999/xlink" width="220.5078125" height="200"><defs><style type="text/css"></style></defs><path d="M564.965517 935.724138C331.917241 935.724138 141.241379 745.048276 141.241379 512S331.917241 88.275862 564.965517 88.275862s423.724138 188.910345 423.724138 423.724138-190.675862 423.724138-423.724138 423.724138z m0-812.137931c-213.627586 0-388.413793 174.786207-388.413793 388.413793s174.786207 388.413793 388.413793 388.413793 388.413793-174.786207 388.413793-388.413793S778.593103 123.586207 564.965517 123.586207z" fill="#3164AF" p-id="1192"></path><path d="M734.455172 644.413793l-167.724138-275.42069-155.365517 247.172414-127.117241-102.4-116.524138 58.262069-15.889655-31.77931 135.944827-68.855173 114.758621 93.572414 164.193103-263.062069 171.255173 278.951724 185.37931-240.110344 28.248276 22.951724z" fill="#3164AF" p-id="1193"></path><path d="M564.965517 323.089655m-37.075862 0a37.075862 37.075862 0 1 0 74.151724 0 37.075862 37.075862 0 1 0-74.151724 0Z" fill="#3164AF" p-id="1194"></path><path d="M402.537931 584.386207m-37.075862 0a37.075862 37.075862 0 1 0 74.151724 0 37.075862 37.075862 0 1 0-74.151724 0Z" fill="#3164AF" p-id="1195"></path><path d="M287.77931 492.57931m-37.075862 0a37.075862 37.075862 0 1 0 74.151724 0 37.075862 37.075862 0 1 0-74.151724 0Z" fill="#3164AF" p-id="1196"></path><path d="M736.22069 605.572414m-37.075862 0a37.075862 37.075862 0 1 0 74.151724 0 37.075862 37.075862 0 1 0-74.151724 0Z" fill="#3164AF" p-id="1197"></path></svg>